<?xml version="1.0" standalone="no"?>
<!DOCTYPE svg PUBLIC "-//W3C//DTD SVG 20010904//EN"
 "http://www.w3.org/TR/2001/REC-SVG-20010904/DTD/svg10.dtd">
<svg version="1.0" xmlns="http://www.w3.org/2000/svg"
 width="89.000000pt" height="89.000000pt" viewBox="0 0 89.000000 89.000000"
 preserveAspectRatio="xMidYMid meet">
<metadata>
Created by potrace 1.11, written by Peter Selinger 2001-2013
</metadata>
<g transform="translate(0.000000,89.000000) scale(0.100000,-0.100000)"
fill="#000000" stroke="none">
<path d="M180 876 c-145 -40 -212 -144 -145 -224 37 -45 64 -47 80 -9 13 30
12 33 -11 50 -30 23 -31 47 -1 75 37 35 96 54 169 54 58 1 72 -3 93 -22 30
-28 33 -73 8 -125 -14 -30 -22 -35 -51 -35 -33 0 -33 1 -26 33 5 17 9 55 9 82
l0 50 -53 -2 c-65 -3 -97 -18 -86 -41 13 -29 7 -77 -31 -237 -21 -85 -34 -162
-31 -171 5 -14 15 -15 59 -10 28 4 56 11 60 15 6 6 47 185 47 208 0 1 13 -5
30 -13 29 -15 29 -16 23 -77 -5 -57 -3 -64 19 -87 14 -14 28 -38 32 -54 4 -16
20 -41 35 -56 l28 -28 -16 -76 c-19 -94 -14 -101 60 -89 l54 8 20 100 c19 97
21 100 45 97 14 -2 27 -5 29 -7 1 -2 14 -50 27 -107 39 -166 47 -178 123 -178
41 0 91 17 91 31 0 18 -13 39 -25 39 -18 0 -46 48 -85 145 -18 44 -38 86 -44
94 -8 11 -8 15 2 19 8 2 30 18 49 36 89 78 81 186 -19 237 -55 29 -180 36
-256 16 l-54 -14 39 39 c35 36 38 43 38 98 0 51 -4 62 -30 90 -53 55 -194 76
-305 46z m487 -332 c59 -37 29 -164 -38 -164 -31 0 -31 1 -23 38 4 20 8 57 9
82 0 53 -12 58 -92 40 l-53 -11 6 -57 c8 -67 3 -66 -25 5 l-20 52 42 15 c75
28 150 27 194 0z"/>
</g>
</svg>
